<?xml version="1.0" encoding="UTF-8"?>
<!DOCTYPE svg PUBLIC "-//W3C//DTD SVG 1.1//EN" "http://www.w3.org/Graphics/SVG/1.1/DTD/svg11.dtd">
<!-- Creator: CorelDRAW X6 -->
<svg xmlns="http://www.w3.org/2000/svg" xml:space="preserve" width="1304px" height="600px" version="1.1" style="shape-rendering:geometricPrecision; text-rendering:geometricPrecision; image-rendering:optimizeQuality; fill-rule:evenodd; clip-rule:evenodd"
viewBox="0 0 1304 600"
 xmlns:xlink="http://www.w3.org/1999/xlink">
 <defs>
  <style type="text/css">
   <![CDATA[
    .fil4 {fill:#8F3213}
    .fil24 {fill:#AB463A}
    .fil0 {fill:#B1492E}
    .fil18 {fill:#B34B70}
    .fil25 {fill:#BD6D4C}
    .fil9 {fill:#C05B2F}
    .fil28 {fill:#C16148}
    .fil5 {fill:#C25D53}
    .fil14 {fill:#C35A5E}
    .fil16 {fill:#C55B72}
    .fil23 {fill:#C64C97}
    .fil26 {fill:#C64E95}
    .fil19 {fill:#CE7070}
    .fil27 {fill:#CF6F7D}
    .fil8 {fill:#D47061}
    .fil20 {fill:#D4715C}
    .fil2 {fill:#D47352}
    .fil29 {fill:#D56794}
    .fil12 {fill:#D57066}
    .fil17 {fill:#D66591}
    .fil21 {fill:#D6668E}
    .fil22 {fill:#D962A4}
    .fil3 {fill:#E17B79}
    .fil13 {fill:#E27C77}
    .fil6 {fill:#F2937D}
    .fil10 {fill:#F49081}
    .fil7 {fill:#F58E8F}
    .fil11 {fill:#F59084}
    .fil15 {fill:#F788A8}
    .fil1 {fill:#FDA692}
   ]]>
  </style>
 </defs>
 <g id="Слой_x0020_1">
  <metadata id="CorelCorpID_0Corel-Layer"/>
  <g id="_529995344">
   <polygon class="fil0" points="43,295 119,206 -13,151 -13,260 "/>
   <polygon class="fil1" points="218,305 243,181 119,206 "/>
   <polygon class="fil1" points="266,150 242,116 177,113 "/>
   <polygon class="fil2" points="-13,340 43,294 -14,257 "/>
   <polygon class="fil3" points="266,151 251,75 200,59 237,113 245,123 "/>
   <polygon class="fil4" points="176,117 201,59 102,59 "/>
   <polygon class="fil4" points="329,195 411,181 337,132 "/>
   <polygon class="fil5" points="264,148 338,133 251,76 "/>
   <polygon class="fil5" points="409,182 502,96 409,72 "/>
   <polygon class="fil6" points="120,206 245,182 178,112 "/>
   <polygon class="fil7" points="177,113 242,117 201,58 "/>
   <polygon class="fil8" points="465,212 540,164 500,93 "/>
   <polygon class="fil9" points="119,209 178,113 104,58 "/>
   <polygon class="fil10" points="409,181 409,72 338,132 "/>
   <polygon class="fil7" points="467,209 576,248 540,162 "/>
   <polygon class="fil3" points="742,212 835,140 707,109 "/>
   <polygon class="fil11" points="626,212 636,141 591,162 "/>
   <polygon class="fil12" points="744,212 707,106 625,213 "/>
   <polygon class="fil13" points="466,210 500,96 409,181 "/>
   <polygon class="fil1" points="120,208 104,58 -13,153 "/>
   <polygon class="fil14" points="929,287 833,138 831,256 "/>
   <polygon class="fil15" points="1046,210 1150,199 1081,92 "/>
   <polygon class="fil16" points="1190,330 1322,273 1272,244 "/>
   <polygon class="fil7" points="1096,301 1150,196 1045,209 "/>
   <polygon class="fil17" points="1271,246 1320,192 1320,137 1266,102 "/>
   <path class="fil18" d="M1319 247l1 -55 -49 52c3,0 48,3 48,3z"/>
   <polygon class="fil19" points="669,302 744,209 626,210 "/>
   <path class="fil3" d="M574 248l53 -36 -36 -51c0,0 -17,78 -17,87z"/>
   <polygon class="fil7" points="834,257 833,137 742,210 "/>
   <path class="fil20" d="M625 215l83 -108 -73 34c2,1 -10,74 -10,74z"/>
   <polygon class="fil21" points="1146,196 1228,233 1267,102 "/>
   <polygon class="fil3" points="922,287 1097,299 1045,208 "/>
   <polygon class="fil6" points="628,210 742,209 739,212 744,212 707,108 "/>
   <polygon class="fil15" points="1097,299 1231,232 1147,196 "/>
   <path class="fil22" d="M1319 273l0 -29 -41 1c0,0 0,0 0,0 -2,0 -6,-1 -7,-1l48 29z"/>
   <polygon class="fil23" points="1275,247 1267,103 1253,146 1253,146 1227,232 "/>
   <polygon class="fil24" points="104,325 217,305 119,206 "/>
   <polygon class="fil13" points="886,456 932,287 831,250 "/>
   <polygon class="fil25" points="67,414 -41,290 "/>
   <polygon class="fil25" points="61,428 44,292 -15,340 "/>
   <polygon class="fil1" points="423,291 466,208 406,179 "/>
   <polygon class="fil8" points="215,307 286,274 243,181 "/>
   <polygon class="fil26" points="1320,357 1320,271 1197,328 "/>
   <polygon class="fil27" points="1272,246 1227,229 1097,298 "/>
   <polygon class="fil9" points="-13,477 63,428 -13,335 "/>
   <polygon class="fil5" points="42,294 108,326 120,201 "/>
   <polygon class="fil8" points="108,322 42,291 61,431 "/>
   <polygon class="fil6" points="146,532 61,429 -15,475 "/>
   <polygon class="fil24" points="146,535 108,321 58,427 "/>
   <polygon class="fil8" points="128,449 220,302 106,321 "/>
   <polygon class="fil9" points="145,535 219,298 126,446 "/>
   <polygon class="fil8" points="44,292 116,206 -13,153 -13,258 42,293 42,291 "/>
   <polygon class="fil8" points="337,133 329,195 406,182 406,179 408,180 338,132 338,132 337,132 337,132 338,133 "/>
   <polygon class="fil13" points="121,206 176,117 176,117 178,113 178,113 178,113 178,113 178,113 177,112 105,59 104,59 104,59 105,62 119,201 120,201 120,204 120,206 120,207 120,207 120,206 "/>
   <polygon class="fil0" points="147,532 -14,470 -13,582 "/>
   <polygon class="fil8" points="-8,474 144,531 144,530 61,430 53,434 -12,473 "/>
   <polygon class="fil8" points="242,184 264,147 177,113 "/>
   <polygon class="fil1" points="332,196 340,131 262,147 "/>
   <polygon class="fil3" points="177,112 200,59 105,59 "/>
   <polygon class="fil1" points="409,72 409,179 409,181 409,181 410,180 499,97 499,95 "/>
   <polygon class="fil6" points="337,132 252,77 251,76 264,147 265,146 337,132 "/>
   <polygon class="fil6" points="177,112 200,59 105,59 "/>
   <polygon class="fil28" points="499,99 466,210 465,210 465,212 468,210 467,209 539,163 502,97 501,96 500,93 499,95 499,97 500,96 "/>
   <polygon class="fil4" points="52,624 146,532 -14,582 "/>
   <polygon class="fil1" points="499,99 466,210 465,210 465,212 468,210 467,209 539,163 502,97 501,96 500,93 499,95 499,97 500,96 "/>
   <polygon class="fil24" points="202,626 238,507 142,532 "/>
   <path class="fil25" d="M143 531l-92 93c-1,2 122,0 151,0l-59 -93z"/>
   <path class="fil25" d="M201 623c-2,1 140,0 140,0l-105 -115 -35 115z"/>
   <path class="fil24" d="M-14 626c-1,1 65,0 65,0l3 -3 -68 -43 0 46z"/>
   <path class="fil5" d="M143 532c-1,2 93,-24 93,-24l-20 -203 -73 227z"/>
   <path class="fil9" d="M286 273l-72 32c-2,2 20,208 20,208l52 -240z"/>
   <path class="fil6" d="M264 146l-23 36c-1,2 44,95 44,95l-21 -131z"/>
   <path class="fil24" d="M260 391l-30 120c-1,2 112,115 112,115l-82 -235z"/>
   <polygon class="fil25" points="144,530 61,430 53,434 -11,472 -12,473 -8,474 144,531 144,531 "/>
   <path class="fil12" d="M234 515l-33 107 0 1c-1,0 0,0 0,0 0,0 1,0 2,0 16,1 123,0 137,0 -15,-15 -86,-85 -105,-106 0,-1 -1,-1 -1,-2z"/>
   <path class="fil8" d="M130 441l84 -135c0,0 -1,0 -1,0 0,-1 1,-1 1,-1l1 0 1 -2 0 0 0 0 0 0 -1 0 0 0 -106 17 -3 1 0 0 0 4 0 0 0 0 1 1 20 119 3 -4z"/>
   <path class="fil0" d="M201 622l-56 -88 0 -1 0 0 0 0 -1 0 0 -1c0,1 -1,1 -1,0l0 0 1 0 0 0 -1 -1 0 0 -3 3 0 1 -87 87 1 1 -2 1 0 0c12,1 121,0 149,0 0,0 1,0 1,0l-1 -1c0,0 -1,0 0,0l0 -1z"/>
   <path class="fil14" d="M234 515l-33 107 0 1c-1,0 0,0 0,0l2 0c16,1 123,0 137,0 -15,-15 -86,-85 -105,-106 0,-1 -1,-1 -1,-2z"/>
   <path class="fil12" d="M294 490l130 -202 -166 104c-1,1 36,98 36,98z"/>
   <path class="fil24" d="M424 290l-165 107 25 -123c-2,1 140,16 140,16z"/>
   <path class="fil8" d="M333 192l-70 -45 18 130c-1,1 52,-85 52,-85z"/>
   <path class="fil6" d="M426 292l-94 -100 -52 83c-1,2 146,17 146,17z"/>
   <path class="fil3" d="M424 295l-15 -116 -78 16c-2,1 93,99 93,100z"/>
   <path class="fil10" d="M586 247l-118 -42 -53 92c-1,1 160,-53 171,-50z"/>
   <path class="fil15" d="M1090 295l-162 -11 87 123c-2,1 75,-112 75,-112z"/>
   <path class="fil1" d="M574 249l-155 41 -71 115c-2,2 265,-167 226,-156z"/>
   <path class="fil1" d="M670 299l-100 -57 -34 180c-1,2 134,-123 134,-123z"/>
   <polygon class="fil29" points="885,456 1019,405 928,285 "/>
   <path class="fil1" d="M669 302l73 -90 0 0 -3 0 2 -2 1 -1 -1 0 -113 1 -1 2 0 1 40 84 3 2c0,0 -1,1 -2,2l1 1z"/>
   <path class="fil1" d="M628 210l79 -101 0 0 0 -1 1 -1 -1 1 -3 1 -69 32c0,0 0,0 0,1 1,5 -7,53 -10,68 0,0 0,1 0,1 0,1 0,1 0,2 0,0 0,0 0,0 0,0 0,0 0,0 0,1 0,2 0,2l1 -2 1 -1 1 -2z"/>
   <polygon class="fil15" points="833,141 834,254 834,256 834,256 834,256 834,257 925,285 927,284 927,284 834,140 833,139 833,139 833,139 "/>
   <polygon class="fil15" points="833,141 834,254 834,256 834,256 834,256 834,257 925,285 927,284 927,284 834,140 833,139 833,139 833,139 "/>
   <polygon class="fil17" points="1089,298 1201,328 1280,242 "/>
   <polygon class="fil15" points="744,209 669,301 833,255 "/>
   <polygon class="fil11" points="670,299 626,212 573,247 "/>
   <polygon class="fil29" points="1250,513 1323,355 1203,326 "/>
   <polygon class="fil18" points="1088,521 1019,391 1006,564 "/>
   <polygon class="fil15" points="1253,514 1211,329 1089,295 "/>
   <polygon class="fil27" points="1014,404 1253,511 1092,291 "/>
   <polygon class="fil21" points="1250,508 1320,628 1322,356 "/>
   <polygon class="fil18" points="1251,507 1322,356 1322,357 1323,355 1320,354 1203,326 1204,327 1211,329 1212,331 "/>
   <polygon class="fil23" points="1252,508 1017,403 1086,527 "/>
   <polygon class="fil27" points="1079,524 1323,628 1246,499 "/>
   <path class="fil15" d="M889 449l-55 -199 -42 232c-1,1 97,-33 97,-33z"/>
   <path class="fil26" d="M1019 401l-129 51 118 110c1,3 8,-76 11,-161z"/>
   <polygon class="fil16" points="727,626 778,537 891,624 "/>
   <polygon class="fil18" points="1077,517 1111,630 1322,623 "/>
   <polygon class="fil26" points="873,626 1116,630 1080,518 "/>
   <polygon class="fil21" points="877,626 1010,555 886,443 "/>
   <polygon class="fil18" points="774,544 878,624 889,448 "/>
   <polygon class="fil15" points="662,503 800,469 666,294 "/>
   <polygon class="fil13" points="777,545 894,446 660,501 "/>
   <polygon class="fil1" points="835,251 665,297 795,467 "/>
   <polygon class="fil7" points="573,246 345,405 537,419 "/>
   <polygon class="fil3" points="670,298 537,417 664,499 "/>
   <polygon class="fil14" points="351,394 292,487 341,623 "/>
   <polygon class="fil12" points="337,623 543,414 348,403 "/>
   <polygon class="fil24" points="333,623 442,623 544,410 "/>
   <polygon class="fil5" points="431,621 619,624 539,417 "/>
   <polygon class="fil14" points="535,412 618,623 661,496 "/>
   <polygon class="fil24" points="614,626 781,547 660,491 "/>
   <polygon class="fil21" points="612,623 769,623 774,547 "/>
   <path class="fil1" d="M120 207l88 88 7 8 1 0 26 -117c0,-1 -1,-2 -1,-3l-121 23 0 1z"/>
  </g>
 </g>
</svg>
